<mxfile host="app.diagrams.net" agent="Mozilla/5.0 (Macintosh; Intel Mac OS X 10_15_7) AppleWebKit/537.36 (KHTML, like Gecko) Chrome/132.0.0.0 Safari/537.36" version="26.0.11">
  <diagram name="第 1 页" id="7sApqYQnZAsfcyaySL2o">
    <mxGraphModel dx="1242" dy="785" grid="1" gridSize="10" guides="1" tooltips="1" connect="1" arrows="1" fold="1" page="1" pageScale="1" pageWidth="827" pageHeight="1169" math="0" shadow="0">
      <root>
        <mxCell id="0" />
        <mxCell id="1" parent="0" />
        <mxCell id="Ntoe-yldmmv3wdoFCn8Z-14" value="" style="group" vertex="1" connectable="0" parent="1">
          <mxGeometry x="180" y="100" width="190" height="610" as="geometry" />
        </mxCell>
        <mxCell id="Ntoe-yldmmv3wdoFCn8Z-15" value="转到游戏" style="swimlane;whiteSpace=wrap;html=1;" vertex="1" parent="Ntoe-yldmmv3wdoFCn8Z-14">
          <mxGeometry width="180" height="520" as="geometry" />
        </mxCell>
        <mxCell id="Ntoe-yldmmv3wdoFCn8Z-16" style="edgeStyle=orthogonalEdgeStyle;rounded=0;orthogonalLoop=1;jettySize=auto;html=1;" edge="1" parent="Ntoe-yldmmv3wdoFCn8Z-15" source="Ntoe-yldmmv3wdoFCn8Z-17" target="Ntoe-yldmmv3wdoFCn8Z-19">
          <mxGeometry relative="1" as="geometry" />
        </mxCell>
        <mxCell id="Ntoe-yldmmv3wdoFCn8Z-17" value="更新资源引用" style="rounded=1;whiteSpace=wrap;html=1;" vertex="1" parent="Ntoe-yldmmv3wdoFCn8Z-15">
          <mxGeometry x="30" y="350" width="120" height="40" as="geometry" />
        </mxCell>
        <mxCell id="Ntoe-yldmmv3wdoFCn8Z-18" style="edgeStyle=orthogonalEdgeStyle;rounded=0;orthogonalLoop=1;jettySize=auto;html=1;" edge="1" parent="Ntoe-yldmmv3wdoFCn8Z-15" source="Ntoe-yldmmv3wdoFCn8Z-19" target="Ntoe-yldmmv3wdoFCn8Z-20">
          <mxGeometry relative="1" as="geometry" />
        </mxCell>
        <mxCell id="Ntoe-yldmmv3wdoFCn8Z-19" value="提取游戏so库文件" style="rounded=1;whiteSpace=wrap;html=1;" vertex="1" parent="Ntoe-yldmmv3wdoFCn8Z-15">
          <mxGeometry x="30" y="410" width="120" height="40" as="geometry" />
        </mxCell>
        <mxCell id="Ntoe-yldmmv3wdoFCn8Z-20" value="更新so库文件" style="rounded=1;whiteSpace=wrap;html=1;" vertex="1" parent="Ntoe-yldmmv3wdoFCn8Z-15">
          <mxGeometry x="30" y="470" width="120" height="40" as="geometry" />
        </mxCell>
        <mxCell id="Ntoe-yldmmv3wdoFCn8Z-30" value="替换ClassLoader" style="rounded=1;whiteSpace=wrap;html=1;" vertex="1" parent="Ntoe-yldmmv3wdoFCn8Z-15">
          <mxGeometry x="30" y="230" width="120" height="40" as="geometry" />
        </mxCell>
        <mxCell id="Ntoe-yldmmv3wdoFCn8Z-32" value="提起游戏资源" style="rounded=1;whiteSpace=wrap;html=1;" vertex="1" parent="Ntoe-yldmmv3wdoFCn8Z-15">
          <mxGeometry x="30" y="290" width="120" height="40" as="geometry" />
        </mxCell>
        <mxCell id="Ntoe-yldmmv3wdoFCn8Z-29" style="edgeStyle=orthogonalEdgeStyle;rounded=0;orthogonalLoop=1;jettySize=auto;html=1;" edge="1" parent="Ntoe-yldmmv3wdoFCn8Z-15" source="Ntoe-yldmmv3wdoFCn8Z-30" target="Ntoe-yldmmv3wdoFCn8Z-32">
          <mxGeometry relative="1" as="geometry" />
        </mxCell>
        <mxCell id="Ntoe-yldmmv3wdoFCn8Z-31" style="edgeStyle=orthogonalEdgeStyle;rounded=0;orthogonalLoop=1;jettySize=auto;html=1;" edge="1" parent="Ntoe-yldmmv3wdoFCn8Z-15" source="Ntoe-yldmmv3wdoFCn8Z-32" target="Ntoe-yldmmv3wdoFCn8Z-17">
          <mxGeometry relative="1" as="geometry" />
        </mxCell>
        <mxCell id="Ntoe-yldmmv3wdoFCn8Z-21" style="edgeStyle=orthogonalEdgeStyle;rounded=0;orthogonalLoop=1;jettySize=auto;html=1;" edge="1" parent="Ntoe-yldmmv3wdoFCn8Z-14" source="Ntoe-yldmmv3wdoFCn8Z-22" target="Ntoe-yldmmv3wdoFCn8Z-24">
          <mxGeometry relative="1" as="geometry" />
        </mxCell>
        <mxCell id="Ntoe-yldmmv3wdoFCn8Z-22" value="App启动" style="rounded=1;whiteSpace=wrap;html=1;" vertex="1" parent="Ntoe-yldmmv3wdoFCn8Z-14">
          <mxGeometry x="30" y="50" width="120" height="40" as="geometry" />
        </mxCell>
        <mxCell id="Ntoe-yldmmv3wdoFCn8Z-23" style="edgeStyle=orthogonalEdgeStyle;rounded=0;orthogonalLoop=1;jettySize=auto;html=1;" edge="1" parent="Ntoe-yldmmv3wdoFCn8Z-14" source="Ntoe-yldmmv3wdoFCn8Z-24" target="Ntoe-yldmmv3wdoFCn8Z-26">
          <mxGeometry relative="1" as="geometry" />
        </mxCell>
        <mxCell id="Ntoe-yldmmv3wdoFCn8Z-24" value="McGLoader初始化" style="rounded=1;whiteSpace=wrap;html=1;" vertex="1" parent="Ntoe-yldmmv3wdoFCn8Z-14">
          <mxGeometry x="30" y="110" width="120" height="40" as="geometry" />
        </mxCell>
        <mxCell id="Ntoe-yldmmv3wdoFCn8Z-34" style="edgeStyle=orthogonalEdgeStyle;rounded=0;orthogonalLoop=1;jettySize=auto;html=1;" edge="1" parent="Ntoe-yldmmv3wdoFCn8Z-14" source="Ntoe-yldmmv3wdoFCn8Z-26" target="Ntoe-yldmmv3wdoFCn8Z-30">
          <mxGeometry relative="1" as="geometry" />
        </mxCell>
        <mxCell id="Ntoe-yldmmv3wdoFCn8Z-26" value="提取游戏Dex" style="rounded=1;whiteSpace=wrap;html=1;" vertex="1" parent="Ntoe-yldmmv3wdoFCn8Z-14">
          <mxGeometry x="30" y="170" width="120" height="40" as="geometry" />
        </mxCell>
      </root>
    </mxGraphModel>
  </diagram>
</mxfile>
